<svg version="1.1" id="Layer_1" xmlns="http://www.w3.org/2000/svg" xmlns:xlink="http://www.w3.org/1999/xlink" x="0px" y="0px"
	 width="100%" viewBox="0 0 512 512" enable-background="new 0 0 512 512" xml:space="preserve">
<path fill="#000000" opacity="1.000000" stroke="none" 
	d="
M277.000000,513.000000 
	C184.689072,513.000000 92.878143,513.000000 1.033606,513.000000 
	C1.033606,342.397369 1.033606,171.794754 1.033606,1.096060 
	C171.560944,1.096060 342.121979,1.096060 512.841492,1.096060 
	C512.841492,171.666550 512.841492,342.333252 512.841492,513.000000 
	C434.461395,513.000000 355.980682,513.000000 277.000000,513.000000 
M246.885117,268.798523 
	C245.520828,261.855652 241.662277,256.823486 234.820480,253.972809 
	C243.662521,247.409927 244.794907,238.762726 242.454376,229.534958 
	C240.208420,220.680054 232.948959,217.124146 224.737473,216.761887 
	C208.800522,216.058792 192.825516,216.138947 176.865677,216.091278 
	C172.954437,216.079590 171.583252,218.750107 171.592316,222.493790 
	C171.647491,245.290207 171.657669,268.086945 171.576904,290.883179 
	C171.563782,294.584930 173.074326,296.719727 176.730774,296.716248 
	C192.864304,296.700989 209.054413,297.352936 225.115646,296.222778 
	C242.154724,295.023834 248.175049,286.804291 246.885117,268.798523 
M443.874115,260.418427 
	C453.273621,252.500778 453.260223,242.103394 450.728333,231.567505 
	C448.457977,222.119888 441.024017,217.483963 431.955139,217.011841 
	C415.515594,216.156006 399.024658,216.209579 382.553680,216.094147 
	C378.690125,216.067062 377.133514,218.757492 377.159729,222.487259 
	C377.205444,228.984253 377.169922,235.481812 377.169800,241.979141 
	C377.169495,258.638947 377.170837,275.298767 377.169098,291.958557 
	C377.168854,294.311218 376.805542,296.862976 380.425049,296.832825 
	C384.864563,296.795807 389.304596,296.823975 394.042938,296.823975 
	C394.042938,289.124969 394.014313,281.985016 394.051453,274.845398 
	C394.085114,268.369629 396.136566,266.242584 402.724213,266.030884 
	C407.051575,265.891846 411.412231,265.707794 415.705200,266.108765 
	C417.448486,266.271576 419.740356,267.525299 420.604218,268.981659 
	C425.348999,276.980804 429.677826,285.225555 434.283783,293.309448 
	C435.048279,294.651184 436.415100,296.519348 437.606445,296.598633 
	C442.963226,296.955078 448.357086,296.754028 454.620087,296.754028 
	C448.011597,285.360840 441.961212,274.929810 435.924683,264.522705 
	C438.557098,263.214417 440.928741,262.035706 443.874115,260.418427 
M295.367126,247.590561 
	C295.367126,241.500793 295.367126,235.411011 295.367126,229.041626 
	C310.238373,229.041626 324.554169,229.106888 338.867615,228.955490 
	C340.573517,228.937469 343.095856,228.218613 343.805511,226.993683 
	C345.681702,223.755112 346.770294,220.060211 348.159546,216.579178 
	C347.546570,216.253860 347.277740,215.986374 347.008636,215.986115 
	C326.344940,215.965729 305.681213,215.966125 285.017487,215.965500 
	C280.016907,215.965347 278.576355,218.738220 278.602234,223.380554 
	C278.725616,245.544861 278.640106,267.710266 278.666565,289.875214 
	C278.673401,295.585907 279.685272,296.762024 285.257996,296.788910 
	C303.422852,296.876617 321.588715,296.865753 339.753113,296.740936 
	C341.148621,296.731354 343.242279,295.899811 343.796692,294.824219 
	C345.565704,291.392303 346.761505,287.664948 348.442444,283.379150 
	C330.321442,283.379150 313.065857,283.379150 295.344574,283.379150 
	C295.344574,279.312195 295.329956,275.687042 295.347595,272.062012 
	C295.386292,264.108582 297.339020,262.136902 305.460968,262.057434 
	C312.293152,261.990631 319.128418,262.128082 325.957733,261.973175 
	C327.423218,261.939941 329.649353,261.456055 330.181793,260.460999 
	C331.986938,257.087372 333.189667,253.391373 334.853973,249.241486 
	C327.338013,249.241486 320.856110,249.325272 314.377411,249.217575 
	C308.097260,249.113174 301.820374,248.811996 295.367126,247.590561 
M135.695282,281.095245 
	C136.725067,277.426300 138.580902,273.771667 138.644608,270.086029 
	C138.954498,252.161469 138.784653,234.228638 138.784653,215.919617 
	C134.848282,215.919617 131.038239,216.167404 127.275337,215.852371 
	C123.226158,215.513397 121.808640,216.730118 121.884033,221.031540 
	C122.140762,235.679398 122.091614,250.336411 121.910141,264.986847 
	C121.784142,275.159241 117.918144,281.606659 109.617249,283.115540 
	C103.093040,284.301453 96.087357,284.049103 89.467873,283.157013 
	C82.956589,282.279572 78.941414,277.410614 78.047325,270.904022 
	C77.259285,265.169128 77.174278,259.313477 77.114441,253.507675 
	C76.986351,241.079865 77.075195,228.649826 77.075195,215.920181 
	C72.274704,215.920181 67.971695,216.045517 63.680344,215.875916 
	C60.840336,215.763702 59.929573,216.840057 59.950874,219.641983 
	C60.071110,235.459137 59.762062,251.284317 60.148663,267.093323 
	C60.536385,282.948364 69.194893,293.863159 84.838715,296.399475 
	C94.348938,297.941345 104.406494,297.601135 114.033691,296.497345 
	C123.215385,295.444672 130.890747,290.515747 135.695282,281.095245 
z"/>
<path fill="#FCFCFC" opacity="1.000000" stroke="none" 
	d="
M246.932907,269.203125 
	C248.175049,286.804291 242.154724,295.023834 225.115646,296.222778 
	C209.054413,297.352936 192.864304,296.700989 176.730774,296.716248 
	C173.074326,296.719727 171.563782,294.584930 171.576904,290.883179 
	C171.657669,268.086945 171.647491,245.290207 171.592316,222.493790 
	C171.583252,218.750107 172.954437,216.079590 176.865677,216.091278 
	C192.825516,216.138947 208.800522,216.058792 224.737473,216.761887 
	C232.948959,217.124146 240.208420,220.680054 242.454376,229.534958 
	C244.794907,238.762726 243.662521,247.409927 234.820480,253.972809 
	C241.662277,256.823486 245.520828,261.855652 246.932907,269.203125 
M214.376892,283.823730 
	C217.191055,283.632660 220.053253,283.703003 222.809448,283.196472 
	C228.676636,282.118286 230.581024,279.017181 230.270569,271.734039 
	C230.005722,265.520966 227.559738,262.286041 221.834167,262.071350 
	C212.860443,261.734863 203.862717,261.876190 194.879440,262.044220 
	C191.627945,262.105042 188.821198,263.761627 188.607437,267.296387 
	C188.280838,272.697510 188.521790,278.132935 188.521790,283.823792 
	C197.127945,283.823792 205.267731,283.823792 214.376892,283.823730 
M191.010422,249.578842 
	C200.161087,249.471405 209.327393,249.651077 218.456879,249.154388 
	C224.423721,248.829773 226.648132,245.453476 226.485764,238.775543 
	C226.333908,232.529724 223.889923,229.291061 218.121445,229.110718 
	C208.346085,228.805115 198.554245,229.026718 188.289536,229.026718 
	C188.289536,235.432877 188.235626,241.547531 188.368881,247.658096 
	C188.382965,248.303757 189.496857,248.925446 191.010422,249.578842 
z"/>
<path fill="#FAFAFA" opacity="1.000000" stroke="none" 
	d="
M443.587280,260.637726 
	C440.928741,262.035706 438.557098,263.214417 435.924683,264.522705 
	C441.961212,274.929810 448.011597,285.360840 454.620087,296.754028 
	C448.357086,296.754028 442.963226,296.955078 437.606445,296.598633 
	C436.415100,296.519348 435.048279,294.651184 434.283783,293.309448 
	C429.677826,285.225555 425.348999,276.980804 420.604218,268.981659 
	C419.740356,267.525299 417.448486,266.271576 415.705200,266.108765 
	C411.412231,265.707794 407.051575,265.891846 402.724213,266.030884 
	C396.136566,266.242584 394.085114,268.369629 394.051453,274.845398 
	C394.014313,281.985016 394.042938,289.124969 394.042938,296.823975 
	C389.304596,296.823975 384.864563,296.795807 380.425049,296.832825 
	C376.805542,296.862976 377.168854,294.311218 377.169098,291.958557 
	C377.170837,275.298767 377.169495,258.638947 377.169800,241.979141 
	C377.169922,235.481812 377.205444,228.984253 377.159729,222.487259 
	C377.133514,218.757492 378.690125,216.067062 382.553680,216.094147 
	C399.024658,216.209579 415.515594,216.156006 431.955139,217.011841 
	C441.024017,217.483963 448.457977,222.119888 450.728333,231.567505 
	C453.260223,242.103394 453.273621,252.500778 443.587280,260.637726 
M394.040161,242.490616 
	C394.040161,245.941940 394.040161,249.393280 394.040161,253.031143 
	C405.046661,253.031143 415.634979,253.272446 426.204895,252.935852 
	C432.050690,252.749710 434.617706,249.338806 434.962891,242.940735 
	C435.423462,234.403976 433.423553,229.885040 427.326050,229.517593 
	C416.329742,228.854904 405.264832,229.330215 394.040161,229.330215 
	C394.040161,233.558899 394.040161,237.527924 394.040161,242.490616 
z"/>
<path fill="#FCFCFC" opacity="1.000000" stroke="none" 
	d="
M295.454590,248.093903 
	C301.820374,248.811996 308.097260,249.113174 314.377411,249.217575 
	C320.856110,249.325272 327.338013,249.241486 334.853973,249.241486 
	C333.189667,253.391373 331.986938,257.087372 330.181793,260.460999 
	C329.649353,261.456055 327.423218,261.939941 325.957733,261.973175 
	C319.128418,262.128082 312.293152,261.990631 305.460968,262.057434 
	C297.339020,262.136902 295.386292,264.108582 295.347595,272.062012 
	C295.329956,275.687042 295.344574,279.312195 295.344574,283.379150 
	C313.065857,283.379150 330.321442,283.379150 348.442444,283.379150 
	C346.761505,287.664948 345.565704,291.392303 343.796692,294.824219 
	C343.242279,295.899811 341.148621,296.731354 339.753113,296.740936 
	C321.588715,296.865753 303.422852,296.876617 285.257996,296.788910 
	C279.685272,296.762024 278.673401,295.585907 278.666565,289.875214 
	C278.640106,267.710266 278.725616,245.544861 278.602234,223.380554 
	C278.576355,218.738220 280.016907,215.965347 285.017487,215.965500 
	C305.681213,215.966125 326.344940,215.965729 347.008636,215.986115 
	C347.277740,215.986374 347.546570,216.253860 348.159546,216.579178 
	C346.770294,220.060211 345.681702,223.755112 343.805511,226.993683 
	C343.095856,228.218613 340.573517,228.937469 338.867615,228.955490 
	C324.554169,229.106888 310.238373,229.041626 295.367126,229.041626 
	C295.367126,235.411011 295.367126,241.500793 295.454590,248.093903 
z"/>
<path fill="#FDFDFD" opacity="1.000000" stroke="none" 
	d="
M135.489578,281.408142 
	C130.890747,290.515747 123.215385,295.444672 114.033691,296.497345 
	C104.406494,297.601135 94.348938,297.941345 84.838715,296.399475 
	C69.194893,293.863159 60.536385,282.948364 60.148663,267.093323 
	C59.762062,251.284317 60.071110,235.459137 59.950874,219.641983 
	C59.929573,216.840057 60.840336,215.763702 63.680344,215.875916 
	C67.971695,216.045517 72.274704,215.920181 77.075195,215.920181 
	C77.075195,228.649826 76.986351,241.079865 77.114441,253.507675 
	C77.174278,259.313477 77.259285,265.169128 78.047325,270.904022 
	C78.941414,277.410614 82.956589,282.279572 89.467873,283.157013 
	C96.087357,284.049103 103.093040,284.301453 109.617249,283.115540 
	C117.918144,281.606659 121.784142,275.159241 121.910141,264.986847 
	C122.091614,250.336411 122.140762,235.679398 121.884033,221.031540 
	C121.808640,216.730118 123.226158,215.513397 127.275337,215.852371 
	C131.038239,216.167404 134.848282,215.919617 138.784653,215.919617 
	C138.784653,234.228638 138.954498,252.161469 138.644608,270.086029 
	C138.580902,273.771667 136.725067,277.426300 135.489578,281.408142 
z"/>
<path fill="#050505" opacity="1.000000" stroke="none" 
	d="
M213.892212,283.823761 
	C205.267731,283.823792 197.127945,283.823792 188.521790,283.823792 
	C188.521790,278.132935 188.280838,272.697510 188.607437,267.296387 
	C188.821198,263.761627 191.627945,262.105042 194.879440,262.044220 
	C203.862717,261.876190 212.860443,261.734863 221.834167,262.071350 
	C227.559738,262.286041 230.005722,265.520966 230.270569,271.734039 
	C230.581024,279.017181 228.676636,282.118286 222.809448,283.196472 
	C220.053253,283.703003 217.191055,283.632660 213.892212,283.823761 
z"/>
<path fill="#080808" opacity="1.000000" stroke="none" 
	d="
M190.555481,249.568542 
	C189.496857,248.925446 188.382965,248.303757 188.368881,247.658096 
	C188.235626,241.547531 188.289536,235.432877 188.289536,229.026718 
	C198.554245,229.026718 208.346085,228.805115 218.121445,229.110718 
	C223.889923,229.291061 226.333908,232.529724 226.485764,238.775543 
	C226.648132,245.453476 224.423721,248.829773 218.456879,249.154388 
	C209.327393,249.651077 200.161087,249.471405 190.555481,249.568542 
z"/>
<path fill="#020202" opacity="1.000000" stroke="none" 
	d="
M394.040161,241.993774 
	C394.040161,237.527924 394.040161,233.558899 394.040161,229.330215 
	C405.264832,229.330215 416.329742,228.854904 427.326050,229.517593 
	C433.423553,229.885040 435.423462,234.403976 434.962891,242.940735 
	C434.617706,249.338806 432.050690,252.749710 426.204895,252.935852 
	C415.634979,253.272446 405.046661,253.031143 394.040161,253.031143 
	C394.040161,249.393280 394.040161,245.941940 394.040161,241.993774 
z"/>
</svg>